<svg width="12" height="11" viewBox="0 0 12 11" fill="none" xmlns="http://www.w3.org/2000/svg">
<path d="M12 1.65415C11.5486 1.85103 11.0712 1.98187 10.5825 2.04265C11.0975 1.73712 11.4826 1.25332 11.6648 0.6829C11.1825 0.968903 10.6549 1.17031 10.1047 1.2784C9.76743 0.918235 9.32959 0.66784 8.84812 0.559746C8.36664 0.451653 7.86379 0.490858 7.40488 0.672269C6.94598 0.853679 6.55224 1.16891 6.27482 1.577C5.9974 1.9851 5.84912 2.46719 5.84925 2.96065C5.84925 3.15565 5.86575 3.34315 5.90625 3.52165C4.92756 3.47367 3.97002 3.21966 3.09623 2.77624C2.22243 2.33282 1.45207 1.70996 0.8355 0.948401C0.519614 1.48979 0.421957 2.13123 0.562412 2.7421C0.702868 3.35297 1.07088 3.88734 1.5915 4.2364C1.20207 4.22596 0.820855 4.12204 0.48 3.9334V3.9604C0.480652 4.52847 0.676999 5.07898 1.03599 5.51925C1.39498 5.95951 1.89469 6.26266 2.451 6.37765C2.24054 6.43312 2.02364 6.46036 1.806 6.45865C1.64969 6.46143 1.49354 6.44735 1.34025 6.41665C1.49921 6.90492 1.80562 7.33191 2.2173 7.63882C2.62897 7.94573 3.12567 8.11747 3.639 8.1304C2.7682 8.81143 1.69423 9.18087 0.58875 9.17965C0.387 9.17965 0.1935 9.17065 0 9.1459C1.12491 9.87081 2.43576 10.2543 3.774 10.2499C8.301 10.2499 10.776 6.4999 10.776 3.2494C10.776 3.14065 10.7723 3.03565 10.767 2.9314C11.2522 2.58414 11.6701 2.15131 12 1.65415Z" fill="#5E5C6C"/>
</svg>
