<svg width="30" height="30" viewBox="0 0 30 30" fill="none" xmlns="http://www.w3.org/2000/svg">
<path d="M14.9992 29.5499C23.035 29.5499 29.5492 23.0357 29.5492 15C29.5492 6.96421 23.035 0.449951 14.9992 0.449951C6.96348 0.449951 0.449219 6.96421 0.449219 15C0.449219 23.0357 6.96348 29.5499 14.9992 29.5499Z" fill="#232427"/>
<path d="M21.3663 20.7976L16.4463 8.90255C16.1688 8.28755 15.7563 7.98755 15.2126 7.98755H14.7776C14.2338 7.98755 13.8213 8.28755 13.5438 8.90255L11.4026 14.0851H9.78258C9.29883 14.0888 8.90508 14.4788 8.90133 14.9663V14.9776C8.90508 15.4613 9.29883 15.8551 9.78258 15.8588H10.6526L8.60883 20.7976C8.57133 20.9063 8.54883 21.0188 8.54883 21.1351C8.54883 21.4126 8.63508 21.6301 8.78883 21.7988C8.94258 21.9676 9.16383 22.0501 9.44133 22.0501C9.62508 22.0463 9.80133 21.9901 9.94758 21.8813C10.1051 21.7726 10.2138 21.6151 10.3001 21.4351L12.5501 15.8551H14.1101C14.5938 15.8513 14.9876 15.4613 14.9913 14.9738V14.9513C14.9876 14.4676 14.5938 14.0738 14.1101 14.0701H13.2776L14.9951 9.7913L19.6751 21.4313C19.7613 21.6113 19.8701 21.7688 20.0276 21.8776C20.1738 21.9863 20.3538 22.0426 20.5338 22.0463C20.8113 22.0463 21.0288 21.9638 21.1863 21.7951C21.3438 21.6263 21.4263 21.4088 21.4263 21.1313C21.4301 21.0188 21.4113 20.9026 21.3663 20.7976Z" fill="#FAFAFA"/>
</svg>
