<svg width="30" height="30" viewBox="0 0 30 30" fill="none" xmlns="http://www.w3.org/2000/svg">
<path d="M25.7938 0H3.92157C1.75575 0 0 1.75575 0 3.92157V25.7939C0 27.9597 1.75575 29.7155 3.92157 29.7155H25.7938C27.9597 29.7155 29.7154 27.9597 29.7154 25.7939V3.92157C29.7154 1.75575 27.9597 0 25.7938 0Z" fill="#232427"/>
<path fill-rule="evenodd" clip-rule="evenodd" d="M8.34569 20.0701C7.88399 19.786 7.60163 19.2799 7.60163 18.7363V15.7016C7.60163 15.5855 7.63254 15.4735 7.69025 15.3739C7.86956 15.0628 8.26736 14.957 8.57652 15.1396L15.3823 19.1326C15.7801 19.3669 16.0254 19.7942 16.0254 20.2588V23.4035C16.0254 23.5466 15.9861 23.6897 15.912 23.8121C15.6873 24.1813 15.2091 24.2975 14.8422 24.0715L8.34569 20.0701ZM18.4903 14.3077C18.8881 14.542 19.1334 14.9693 19.1334 15.434V21.8146C19.1334 22.0033 19.0324 22.1776 18.8695 22.2688L17.3794 23.1131C17.3608 23.1235 17.3403 23.1317 17.3196 23.138V19.595C17.3196 19.1366 17.0806 18.7114 16.689 18.475L10.7118 14.8761V10.8768C10.7118 10.7606 10.7427 10.6486 10.8005 10.549C10.9797 10.2379 11.3776 10.1321 11.6867 10.3147L18.4903 14.3077ZM21.4686 9.59485C21.8685 9.82715 22.1139 10.2587 22.1139 10.7233V20.0431C22.1139 20.234 22.0086 20.4103 21.8418 20.5016L20.4298 21.269V14.7806C20.4298 14.3222 20.1909 13.899 19.8012 13.6626L13.6922 9.97444V6.18056C13.6922 6.06442 13.7231 5.9524 13.7787 5.85284C13.9581 5.5417 14.3558 5.4359 14.665 5.61637L21.4686 9.59485Z" fill="#FAFAFA"/>
</svg>
