<svg width="30" height="30" viewBox="0 0 30 30" fill="none" xmlns="http://www.w3.org/2000/svg">
<path fill-rule="evenodd" clip-rule="evenodd" d="M14.5847 29.0453C22.6422 29.0453 29.1694 22.5492 29.1694 14.5227C29.1694 6.49617 22.6422 0 14.5847 0C6.5272 0 0 6.49617 0 14.5227C0 22.5492 6.5272 29.0453 14.5847 29.0453ZM14.5847 24.0483C20.4873 24.0483 25.2343 19.3011 25.2343 13.4608C25.2343 7.62051 20.4561 5.18444 14.5847 5.18444C8.68212 5.18444 3.93507 7.58928 3.93507 13.4608C3.90383 19.3323 8.68212 24.0483 14.5847 24.0483Z" fill="#232427"/>
<path fill-rule="evenodd" clip-rule="evenodd" d="M8.27585 15.1789C8.90047 15.1789 9.46262 14.929 9.89985 14.5542C10.1185 14.9602 10.3995 15.3974 10.6494 15.8348C11.2116 16.7717 11.8361 17.7399 12.3983 18.4582C12.6793 18.833 12.9917 19.1766 13.2728 19.4263C13.5226 19.645 13.9598 19.9573 14.4596 19.9573C14.9592 19.9573 15.3964 19.645 15.6463 19.4263C15.9586 19.1766 16.2709 18.833 16.552 18.4894C17.1453 17.7711 17.8012 16.8029 18.3946 15.866C18.6757 15.3974 18.9568 14.9602 19.2066 14.523C19.6438 14.929 20.2372 15.2101 20.8618 15.2101C22.1734 15.2101 23.2666 14.1482 23.2666 12.8364C23.2666 11.5248 22.2047 10.4629 20.8618 10.4629C19.8 10.4629 18.863 11.1812 18.582 12.1494C18.5196 12.2431 18.457 12.368 18.3946 12.493C18.0198 13.18 17.4889 14.0858 16.9268 14.9914C16.3646 15.8972 15.74 16.8029 15.209 17.4276C14.928 17.7399 14.7093 17.9897 14.522 18.1459C14.4908 18.1771 14.4596 18.1771 14.4596 18.2083C14.4283 18.2083 14.4283 18.1771 14.397 18.1459C14.2097 17.9897 13.9911 17.7711 13.7412 17.4276C13.2416 16.7717 12.6481 15.8972 12.1172 14.9914C11.5863 14.0858 11.0866 13.18 10.7118 12.493C10.6494 12.3992 10.6181 12.3056 10.5869 12.2431C10.3058 11.2124 9.36893 10.4629 8.27585 10.4629C6.96417 10.4629 5.87109 11.5248 5.87109 12.8364C5.87109 14.117 6.93294 15.1789 8.27585 15.1789Z" fill="#232427"/>
</svg>
